<svg xmlns="http://www.w3.org/2000/svg" width="16" height="17" viewBox="0 0 16 17" fill="none">
  <path d="M14.6875 10.2188C14.6875 12.7584 12.6334 14.8125 10.0938 14.8125L10.7828 13.6641" fill="white"/>
  <path d="M14.6875 10.2188C14.6875 12.7584 12.6334 14.8125 10.0938 14.8125L10.7828 13.6641" stroke="#292D32" stroke-width="1.3125" stroke-linecap="round" stroke-linejoin="round"/>
  <path d="M1.5625 6.28125C1.5625 3.74156 3.61656 1.6875 6.15625 1.6875L5.46719 2.83594" stroke="#292D32" stroke-width="1.3125" stroke-linecap="round" stroke-linejoin="round"/>
  <path d="M14.6875 3.13125V3.20344C14.6875 3.38719 14.5431 3.53156 14.3594 3.53156H8.45312C8.26937 3.53156 8.125 3.38719 8.125 3.20344V3.13125C8.125 1.97625 8.41375 1.6875 9.58188 1.6875H13.2306C14.3988 1.6875 14.6875 1.97625 14.6875 3.13125Z" fill="#292D32"/>
  <path d="M8.45312 4.18774C8.26937 4.18774 8.125 4.33212 8.125 4.51587V5.17212V5.82181C8.125 6.97681 8.41375 7.26556 9.58188 7.26556H13.2306C14.3988 7.26556 14.6875 6.97681 14.6875 5.82181V5.17212V4.51587C14.6875 4.33212 14.5431 4.18774 14.3594 4.18774H8.45312Z" fill="#292D32"/>
  <path d="M8.125 10.6781V10.7503C8.125 10.9341 7.98063 11.0784 7.79688 11.0784H1.89062C1.70687 11.0784 1.5625 10.9341 1.5625 10.7503V10.6781C1.5625 9.52312 1.85125 9.23438 3.01937 9.23438H6.66812C7.83625 9.23438 8.125 9.52312 8.125 10.6781Z" fill="#292D32"/>
  <path d="M1.89062 11.7346C1.70687 11.7346 1.5625 11.879 1.5625 12.0627V12.719V13.3687C1.5625 14.5237 1.85125 14.8124 3.01937 14.8124H6.66812C7.83625 14.8124 8.125 14.5237 8.125 13.3687V12.719V12.0627C8.125 11.879 7.98063 11.7346 7.79688 11.7346H1.89062Z" fill="#292D32"/>
</svg>