<svg xmlns="http://www.w3.org/2000/svg" width="24" height="25" viewBox="0 0 24 25" fill="none">
<path d="M13.4002 17.92H10.8902C9.25016 17.92 7.92016 16.54 7.92016 14.84C7.92016 14.43 8.26016 14.09 8.67016 14.09C9.08016 14.09 9.42016 14.43 9.42016 14.84C9.42016 15.71 10.0802 16.42 10.8902 16.42H13.4002C14.0502 16.42 14.5902 15.84 14.5902 15.14C14.5902 14.27 14.2802 14.1 13.7702 13.92L9.74016 12.5C8.96016 12.23 7.91016 11.65 7.91016 9.85996C7.91016 8.31996 9.12016 7.07996 10.6002 7.07996H13.1102C14.7502 7.07996 16.0802 8.45996 16.0802 10.16C16.0802 10.57 15.7402 10.91 15.3302 10.91C14.9202 10.91 14.5802 10.57 14.5802 10.16C14.5802 9.28996 13.9202 8.57996 13.1102 8.57996H10.6002C9.95016 8.57996 9.41016 9.15996 9.41016 9.85996C9.41016 10.73 9.72016 10.9 10.2302 11.08L14.2602 12.5C15.0402 12.77 16.0902 13.35 16.0902 15.14C16.0802 16.67 14.8802 17.92 13.4002 17.92Z" fill="#292D32"/>
<path d="M12 19.25C11.59 19.25 11.25 18.91 11.25 18.5V6.5C11.25 6.09 11.59 5.75 12 5.75C12.41 5.75 12.75 6.09 12.75 6.5V18.5C12.75 18.91 12.41 19.25 12 19.25Z" fill="#292D32"/>
<path d="M15 23.25H9C3.57 23.25 1.25 20.93 1.25 15.5V9.5C1.25 4.07 3.57 1.75 9 1.75H15C20.43 1.75 22.75 4.07 22.75 9.5V15.5C22.75 20.93 20.43 23.25 15 23.25ZM9 3.25C4.39 3.25 2.75 4.89 2.75 9.5V15.5C2.75 20.11 4.39 21.75 9 21.75H15C19.61 21.75 21.25 20.11 21.25 15.5V9.5C21.25 4.89 19.61 3.25 15 3.25H9Z" fill="#292D32"/>
</svg>