<svg xmlns="http://www.w3.org/2000/svg" width="25" height="24" viewBox="0 0 25 24" fill="none">
<path d="M12.5 22.75C6.57 22.75 1.75 17.93 1.75 12C1.75 6.07 6.57 1.25 12.5 1.25C18.43 1.25 23.25 6.07 23.25 12C23.25 17.93 18.43 22.75 12.5 22.75ZM12.5 2.75C7.4 2.75 3.25 6.9 3.25 12C3.25 17.1 7.4 21.25 12.5 21.25C17.6 21.25 21.75 17.1 21.75 12C21.75 6.9 17.6 2.75 12.5 2.75Z" fill="#49454F"/>
<path d="M9.67035 15.5799C9.48035 15.5799 9.29035 15.5099 9.14035 15.3599C8.85035 15.0699 8.85035 14.5899 9.14035 14.2999L14.8004 8.63986C15.0904 8.34986 15.5704 8.34986 15.8604 8.63986C16.1504 8.92986 16.1504 9.40986 15.8604 9.69986L10.2004 15.3599C10.0604 15.5099 9.86035 15.5799 9.67035 15.5799Z" fill="#49454F"/>
<path d="M15.3304 15.5799C15.1404 15.5799 14.9504 15.5099 14.8004 15.3599L9.14035 9.69986C8.85035 9.40986 8.85035 8.92986 9.14035 8.63986C9.43035 8.34986 9.91035 8.34986 10.2004 8.63986L15.8604 14.2999C16.1504 14.5899 16.1504 15.0699 15.8604 15.3599C15.7104 15.5099 15.5204 15.5799 15.3304 15.5799Z" fill="#292D32"/>
</svg>